<svg width="12" height="12" viewBox="0 0 64 64" fill="none" xmlns="http://www.w3.org/2000/svg">
<g clip-path="url(#clip0_139_2)">
<path d="M50.592 2.29099L32 20.884C25.803 14.689 19.604 8.48799 13.406 2.29099C6.23601 -4.87901 -4.87799 6.23899 2.28601 13.411C8.48501 19.604 14.686 25.806 20.878 32.003C14.6832 38.2028 8.48585 44.4002 2.28601 50.595C-4.87799 57.763 6.23701 68.878 13.406 61.715C19.603 55.516 25.802 49.316 31.999 43.121L50.591 61.715C57.761 68.883 68.878 57.764 61.711 50.595C55.512 44.396 49.315 38.199 43.114 32.001C49.314 25.802 55.511 19.603 61.711 13.405C68.879 6.23898 57.762 -4.87901 50.591 2.29499" fill="black"/>
</g>
<defs>
<clipPath id="clip0_139_2">
<rect width="64" height="64" fill="white"/>
</clipPath>
</defs>
</svg>
